HIERARCHY
ROOT mixamorig:Hips
{
	OFFSET 0.000000 201.639420 0.000000
	CHANNELS 6 Xposition Yposition Zposition Xrotation Yrotation Zrotation
	JOINT mixamorig:Spine
	{
		OFFSET 0.006200 19.524994 -2.481800
		CHANNELS 3 Xrotation Yrotation Zrotation
		JOINT mixamorig:Spine1
		{
			OFFSET -0.000900 22.835007 -2.825400
			CHANNELS 3 Xrotation Yrotation Zrotation
			JOINT mixamorig:Spine2
			{
				OFFSET -0.020600 26.552490 -3.193300
				CHANNELS 3 Xrotation Yrotation Zrotation
				JOINT mixamorig:Neck
				{
					OFFSET -0.060000 30.701813 1.352200
					CHANNELS 3 Xrotation Yrotation Zrotation
					JOINT mixamorig:Head
					{
						OFFSET -0.087200 22.547607 3.670900
						CHANNELS 3 Xrotation Yrotation Zrotation
						JOINT mixamorig:HeadTop_End
						{
							OFFSET -0.830600 40.355194 7.893500
							CHANNELS 3 Xrotation Yrotation Zrotation
							End Site
							{
								OFFSET 0.000000 30.592346 0.000000
							}
						}
						JOINT mixamorig:RightEye
						{
							OFFSET -6.302100 18.118591 16.197100
							CHANNELS 3 Xrotation Yrotation Zrotation
							End Site
							{
								OFFSET 0.000000 30.592346 0.000000
							}
						}
						JOINT mixamorig:LeftEye
						{
							OFFSET 6.741500 18.382690 16.401899
							CHANNELS 3 Xrotation Yrotation Zrotation
							End Site
							{
								OFFSET 0.000000 30.592346 0.000000
							}
						}
					}
				}
				JOINT mixamorig:LeftShoulder
				{
					OFFSET 11.924900 18.230499 1.425400
					CHANNELS 3 Xrotation Yrotation Zrotation
					JOINT mixamorig:LeftArm
					{
						OFFSET 25.435989 -0.697632 -5.229300
						CHANNELS 3 Xrotation Yrotation Zrotation
						JOINT mixamorig:LeftForeArm
						{
							OFFSET 54.684776 0.000000 0.000000
							CHANNELS 3 Xrotation Yrotation Zrotation
							JOINT mixamorig:LeftHand
							{
								OFFSET 55.098175 0.000000 0.000000
								CHANNELS 3 Xrotation Yrotation Zrotation
								JOINT mixamorig:LeftHandMiddle1
								{
									OFFSET 23.369751 0.000000 0.000000
									CHANNELS 3 Xrotation Yrotation Zrotation
									JOINT mixamorig:LeftHandMiddle2
									{
										OFFSET 6.378677 0.000000 0.000000
										CHANNELS 3 Xrotation Yrotation Zrotation
										JOINT mixamorig:LeftHandMiddle3
										{
											OFFSET 6.148331 0.000000 0.000000
											CHANNELS 3 Xrotation Yrotation Zrotation
											JOINT mixamorig:LeftHandMiddle4
											{
												OFFSET 6.582504 0.000000 0.000000
												CHANNELS 3 Xrotation Yrotation Zrotation
												End Site
												{
													OFFSET -1.168900 6.395691 1.028606
												}
											}
										}
									}
								}
								JOINT mixamorig:LeftHandThumb1
								{
									OFFSET 7.235672 -3.848206 5.434273
									CHANNELS 3 Xrotation Yrotation Zrotation
									JOINT mixamorig:LeftHandThumb2
									{
										OFFSET 6.568451 -3.792297 3.792300
										CHANNELS 3 Xrotation Yrotation Zrotation
										JOINT mixamorig:LeftHandThumb3
										{
											OFFSET 6.063080 -3.500519 3.500518
											CHANNELS 3 Xrotation Yrotation Zrotation
											JOINT mixamorig:LeftHandThumb4
											{
												OFFSET 4.793182 -2.767334 2.767349
												CHANNELS 3 Xrotation Yrotation Zrotation
												End Site
												{
													OFFSET 0.101639 6.054260 1.275483
												}
											}
										}
									}
								}
								JOINT mixamorig:LeftHandIndex1
								{
									OFFSET 23.101074 -0.309540 4.992809
									CHANNELS 3 Xrotation Yrotation Zrotation
									JOINT mixamorig:LeftHandIndex2
									{
										OFFSET 6.226883 0.000000 0.000000
										CHANNELS 3 Xrotation Yrotation Zrotation
										JOINT mixamorig:LeftHandIndex3
										{
											OFFSET 6.094330 0.000000 0.000000
											CHANNELS 3 Xrotation Yrotation Zrotation
											JOINT mixamorig:LeftHandIndex4
											{
												OFFSET 5.482605 0.000000 0.000000
												CHANNELS 3 Xrotation Yrotation Zrotation
												End Site
												{
													OFFSET -1.427902 5.233032 0.797164
												}
											}
										}
									}
								}
								JOINT mixamorig:LeftHandRing1
								{
									OFFSET 22.299240 0.021149 -3.964172
									CHANNELS 3 Xrotation Yrotation Zrotation
									JOINT mixamorig:LeftHandRing2
									{
										OFFSET 6.321869 0.000000 0.000000
										CHANNELS 3 Xrotation Yrotation Zrotation
										JOINT mixamorig:LeftHandRing3
										{
											OFFSET 5.899796 0.000000 0.000000
											CHANNELS 3 Xrotation Yrotation Zrotation
											JOINT mixamorig:LeftHandRing4
											{
												OFFSET 6.517899 0.000000 0.000000
												CHANNELS 3 Xrotation Yrotation Zrotation
												End Site
												{
													OFFSET -1.637299 6.232208 0.980890
												}
											}
										}
									}
								}
								JOINT mixamorig:LeftHandPinky1
								{
									OFFSET 20.463791 -0.302338 -8.562233
									CHANNELS 3 Xrotation Yrotation Zrotation
									JOINT mixamorig:LeftHandPinky2
									{
										OFFSET 6.908646 0.000000 0.000000
										CHANNELS 3 Xrotation Yrotation Zrotation
										JOINT mixamorig:LeftHandPinky3
										{
											OFFSET 4.622849 0.000000 0.000000
											CHANNELS 3 Xrotation Yrotation Zrotation
											JOINT mixamorig:LeftHandPinky4
											{
												OFFSET 5.216080 0.000000 0.000000
												CHANNELS 3 Xrotation Yrotation Zrotation
												End Site
												{
													OFFSET -0.606308 5.116241 0.814926
												}
											}
										}
									}
								}
							}
						}
					}
				}
				JOINT mixamorig:RightShoulder
				{
					OFFSET -12.001300 18.284088 1.348900
					CHANNELS 3 Xrotation Yrotation Zrotation
					JOINT mixamorig:RightArm
					{
						OFFSET -25.308500 -0.751312 -5.164599
						CHANNELS 3 Xrotation Yrotation Zrotation
						JOINT mixamorig:RightForeArm
						{
							OFFSET -54.684429 0.000000 0.000000
							CHANNELS 3 Xrotation Yrotation Zrotation
							JOINT mixamorig:RightHand
							{
								OFFSET -55.150291 0.000000 0.000000
								CHANNELS 3 Xrotation Yrotation Zrotation
								JOINT mixamorig:RightHandMiddle1
								{
									OFFSET -23.317566 0.000000 0.000000
									CHANNELS 3 Xrotation Yrotation Zrotation
									JOINT mixamorig:RightHandMiddle2
									{
										OFFSET -6.378403 0.000000 0.000000
										CHANNELS 3 Xrotation Yrotation Zrotation
										JOINT mixamorig:RightHandMiddle3
										{
											OFFSET -6.148193 0.000000 0.000000
											CHANNELS 3 Xrotation Yrotation Zrotation
											JOINT mixamorig:RightHandMiddle4
											{
												OFFSET -6.583389 0.000000 0.000000
												CHANNELS 3 Xrotation Yrotation Zrotation
												End Site
												{
													OFFSET 1.171692 6.395905 1.029786
												}
											}
										}
									}
								}
								JOINT mixamorig:RightHandThumb1
								{
									OFFSET -7.190521 -3.860474 5.435846
									CHANNELS 3 Xrotation Yrotation Zrotation
									JOINT mixamorig:RightHandThumb2
									{
										OFFSET -6.567429 -3.791718 3.791708
										CHANNELS 3 Xrotation Yrotation Zrotation
										JOINT mixamorig:RightHandThumb3
										{
											OFFSET -6.062469 -3.500153 3.500166
											CHANNELS 3 Xrotation Yrotation Zrotation
											JOINT mixamorig:RightHandThumb4
											{
												OFFSET -4.792618 -2.767029 2.767022
												CHANNELS 3 Xrotation Yrotation Zrotation
												End Site
												{
													OFFSET -0.100327 6.053253 1.276754
												}
											}
										}
									}
								}
								JOINT mixamorig:RightHandIndex1
								{
									OFFSET -23.048981 -0.310791 4.992554
									CHANNELS 3 Xrotation Yrotation Zrotation
									JOINT mixamorig:RightHandIndex2
									{
										OFFSET -6.227539 0.000000 0.000000
										CHANNELS 3 Xrotation Yrotation Zrotation
										JOINT mixamorig:RightHandIndex3
										{
											OFFSET -6.095047 0.000000 0.000000
											CHANNELS 3 Xrotation Yrotation Zrotation
											JOINT mixamorig:RightHandIndex4
											{
												OFFSET -5.484772 0.000000 0.000000
												CHANNELS 3 Xrotation Yrotation Zrotation
												End Site
												{
													OFFSET 1.420593 5.237305 0.797056
												}
											}
										}
									}
								}
								JOINT mixamorig:RightHandRing1
								{
									OFFSET -22.246323 0.020569 -3.963762
									CHANNELS 3 Xrotation Yrotation Zrotation
									JOINT mixamorig:RightHandRing2
									{
										OFFSET -6.322128 0.000000 0.000000
										CHANNELS 3 Xrotation Yrotation Zrotation
										JOINT mixamorig:RightHandRing3
										{
											OFFSET -5.900024 0.000000 0.000000
											CHANNELS 3 Xrotation Yrotation Zrotation
											JOINT mixamorig:RightHandRing4
											{
												OFFSET -6.518356 0.000000 0.000000
												CHANNELS 3 Xrotation Yrotation Zrotation
												End Site
												{
													OFFSET 1.636398 6.232697 0.982186
												}
											}
										}
									}
								}
								JOINT mixamorig:RightHandPinky1
								{
									OFFSET -20.411011 -0.303314 -8.561701
									CHANNELS 3 Xrotation Yrotation Zrotation
									JOINT mixamorig:RightHandPinky2
									{
										OFFSET -6.907349 0.000000 0.000000
										CHANNELS 3 Xrotation Yrotation Zrotation
										JOINT mixamorig:RightHandPinky3
										{
											OFFSET -4.623840 0.000000 0.000000
											CHANNELS 3 Xrotation Yrotation Zrotation
											JOINT mixamorig:RightHandPinky4
											{
												OFFSET -5.218353 0.000000 0.000000
												CHANNELS 3 Xrotation Yrotation Zrotation
												End Site
												{
													OFFSET 0.602097 5.118835 0.816273
												}
											}
										}
									}
								}
							}
						}
					}
				}
			}
		}
	}
	JOINT mixamorig:LeftUpLeg
	{
		OFFSET 18.168400 -13.561905 -0.039000
		CHANNELS 3 Xrotation Yrotation Zrotation
		JOINT mixamorig:LeftLeg
		{
			OFFSET 0.577358 -80.825211 -3.695000
			CHANNELS 3 Xrotation Yrotation Zrotation
			JOINT mixamorig:LeftFoot
			{
				OFFSET -0.577356 -83.370262 -6.520700
				CHANNELS 3 Xrotation Yrotation Zrotation
				JOINT mixamorig:LeftToeBase
				{
					OFFSET 0.750401 -20.798306 25.135401
					CHANNELS 3 Xrotation Yrotation Zrotation
					JOINT mixamorig:LeftToe_End
					{
						OFFSET -0.000500 0.001200 19.917799
						CHANNELS 3 Xrotation Yrotation Zrotation
						End Site
						{
							OFFSET 0.000000 19.917805 0.000000
						}
					}
				}
			}
		}
	}
	JOINT mixamorig:RightUpLeg
	{
		OFFSET -18.162500 -13.585098 -0.041000
		CHANNELS 3 Xrotation Yrotation Zrotation
		JOINT mixamorig:RightLeg
		{
			OFFSET -0.595024 -80.945297 -3.631900
			CHANNELS 3 Xrotation Yrotation Zrotation
			JOINT mixamorig:RightFoot
			{
				OFFSET 0.595024 -83.218193 -6.561200
				CHANNELS 3 Xrotation Yrotation Zrotation
				JOINT mixamorig:RightToeBase
				{
					OFFSET -0.753601 -20.807106 25.115000
					CHANNELS 3 Xrotation Yrotation Zrotation
					JOINT mixamorig:RightToe_End
					{
						OFFSET 0.000299 0.001700 19.918200
						CHANNELS 3 Xrotation Yrotation Zrotation
						End Site
						{
							OFFSET 0.000000 19.918203 0.000000
						}
					}
				}
			}
		}
	}
}
MOTION
Frames: 4
Frame Time: 0.033333
11.289131 207.345016 562.917664 -14.096745 11.349874 3.813828 0.997849 -0.863436 -0.486417 2.009365 -1.322410 0.055698 2.009369 -1.322412 0.055699 -16.396626 -2.866061 -4.223680 -5.906713 -4.043519 -1.336325 0.000001 -0.000000 -0.000000 0.000001 -0.000000 -0.000000 0.000001 -0.000000 -0.000000 11.140474 -8.381952 36.671668 -38.502992 -26.786018 11.635227 -23.307172 -19.913266 -1.690379 -10.756301 -19.695054 6.955272 -7.340415 -2.770193 -63.240360 -6.524562 -2.949416 -69.083545 0.000017 0.000009 -0.000011 -0.000000 -0.000002 -0.000002 3.958321 -12.520066 29.160543 -13.217046 6.915940 1.950157 -0.000001 -0.000007 -0.000019 -0.000001 0.000000 -0.000000 -6.181088 -5.413332 -50.595572 -6.589356 -2.409858 -74.401804 0.000006 0.000005 -0.000003 0.000001 -0.000001 -0.000004 -2.087035 1.767807 -64.279074 -0.559473 -5.679452 -66.645878 0.000005 -0.000001 -0.000011 -0.000002 0.000000 0.000002 -3.336100 4.677366 -70.290010 1.008646 -7.573180 -48.495470 0.000002 -0.000000 -0.000004 -0.000001 -0.000001 -0.000000 13.002757 17.853307 -23.280959 -33.172115 27.022522 -41.933035 -9.397338 23.228427 1.425238 -9.544243 4.242971 1.624459 -9.364335 -0.726279 75.685661 -4.219256 -1.158038 46.490854 0.000004 -0.000001 0.000013 0.000003 0.000001 0.000002 -18.228445 22.743581 -11.792613 14.539279 -28.495826 3.816943 0.000009 -0.000013 -0.000016 0.000000 0.000000 0.000000 -10.179138 -2.214478 65.411738 -4.062545 -2.065356 53.426259 0.000000 0.000004 -0.000003 0.000002 -0.000000 -0.000005 -3.701843 0.571735 78.473034 0.237107 6.796535 43.470790 -0.000003 0.000003 -0.000001 -0.000001 0.000001 0.000004 -4.986153 2.013487 71.134808 1.258819 9.954166 29.577837 0.000005 -0.000005 0.000016 0.000001 0.000001 -0.000001 -41.178155 -0.544500 -8.260241 20.632323 3.626564 2.601152 20.082617 -2.098436 -13.927837 -0.000003 -0.000001 0.000000 0.000000 0.000000 0.000001 -46.721127 -3.814922 -8.385077 55.526457 -19.098329 4.061302 -4.905522 -1.309617 13.885910 -0.000003 0.000003 0.000011 -0.000000 -0.000001 0.000001 
10.948406 208.054840 572.078308 -25.043177 6.544991 2.479851 1.612612 -1.175202 -0.715751 3.244345 -1.661930 -0.214928 3.244354 -1.661931 -0.214928 -12.084062 -2.303951 -4.534244 -6.331274 -3.124689 -0.714071 0.000001 -0.000000 0.000000 0.000001 -0.000000 0.000000 0.000001 -0.000000 0.000000 12.314190 -14.845227 38.633182 -34.343687 -22.868081 10.014396 -18.242773 -21.690330 -4.176212 -5.495656 -17.681227 8.138044 -7.340421 -2.770186 -63.240353 -6.524566 -2.949412 -69.083545 0.000012 0.000007 -0.000010 0.000001 -0.000001 -0.000003 3.958313 -12.520059 29.160554 -13.217039 6.915950 1.950143 -0.000004 -0.000007 -0.000018 0.000002 0.000001 -0.000001 -6.181093 -5.413310 -50.595579 -6.589351 -2.409844 -74.401783 0.000010 0.000003 -0.000015 -0.000001 -0.000001 -0.000005 -2.087042 1.767805 -64.279061 -0.559484 -5.679456 -66.645844 0.000001 0.000002 -0.000005 -0.000000 0.000000 0.000002 -3.336084 4.677381 -70.290010 1.008639 -7.573187 -48.495470 0.000000 0.000000 -0.000003 -0.000002 -0.000001 -0.000001 17.464358 27.467966 -27.303097 -30.794352 17.671525 -36.760488 -9.617320 27.511867 6.464718 -10.689198 3.965279 -4.795315 -9.364340 -0.726269 75.685627 -4.219246 -1.158057 46.490851 0.000002 -0.000001 0.000011 0.000002 -0.000000 -0.000002 -18.228450 22.743584 -11.792637 14.539294 -28.495787 3.816957 0.000011 -0.000014 -0.000016 0.000001 -0.000000 0.000000 -10.179153 -2.214454 65.411704 -4.062533 -2.065393 53.426262 0.000000 0.000004 0.000004 0.000001 0.000000 -0.000002 -3.701829 0.571743 78.472993 0.237105 6.796570 43.470800 -0.000005 0.000003 -0.000006 0.000001 0.000001 -0.000002 -4.986168 2.013498 71.134747 1.258828 9.954173 29.577834 0.000007 -0.000006 0.000016 0.000004 0.000001 -0.000000 -44.121414 -1.830146 -5.554927 16.403649 2.487985 1.142559 24.976576 -4.266151 -17.867645 -0.000001 -0.000000 0.000001 0.000003 -0.000000 -0.000002 -59.678122 -2.373265 -5.476672 63.686992 -16.104244 4.563737 -3.509817 -0.751923 8.563718 -0.000000 0.000002 -0.000005 -0.000000 0.000000 -0.000002 
10.439798 212.713058 585.777649 -35.955168 2.352383 1.043977 1.966903 -1.355741 -0.929366 3.952984 -1.895271 -0.615686 3.952983 -1.895269 -0.615686 -10.080185 -1.614316 -6.024730 -6.578248 -2.381868 -0.186239 -0.000000 -0.000000 -0.000000 -0.000000 -0.000000 -0.000000 -0.000000 -0.000000 -0.000000 11.069530 -17.565032 34.757224 -31.347314 -25.076273 8.517950 -12.255928 -24.077011 -6.681078 -0.944449 -15.012218 7.640938 -7.340432 -2.770210 -63.240401 -6.524550 -2.949381 -69.083634 0.000013 0.000008 -0.000010 0.000001 0.000001 -0.000000 3.958347 -12.520028 29.160564 -13.217043 6.915926 1.950188 -0.000001 -0.000008 -0.000017 0.000000 0.000001 -0.000000 -6.181087 -5.413339 -50.595627 -6.589361 -2.409853 -74.401886 0.000006 0.000003 -0.000004 -0.000001 0.000000 -0.000002 -2.087060 1.767814 -64.279136 -0.559491 -5.679455 -66.645919 0.000002 0.000001 -0.000003 -0.000001 -0.000000 0.000002 -3.336120 4.677366 -70.290078 1.008650 -7.573150 -48.495484 0.000002 -0.000000 0.000004 -0.000001 0.000000 0.000003 20.711891 36.282245 -28.099847 -27.884032 12.736820 -33.486491 -8.514621 31.543227 10.683134 -10.833845 3.123824 -8.198890 -9.364337 -0.726253 75.685709 -4.219256 -1.158020 46.490871 0.000004 -0.000001 0.000013 0.000001 -0.000001 -0.000002 -18.228424 22.743598 -11.792625 14.539302 -28.495887 3.816933 0.000009 -0.000013 -0.000017 -0.000001 -0.000000 0.000000 -10.179157 -2.214447 65.411772 -4.062541 -2.065367 53.426317 0.000000 0.000004 0.000001 0.000002 -0.000001 -0.000001 -3.701843 0.571763 78.473088 0.237103 6.796556 43.470780 -0.000006 0.000003 -0.000007 0.000001 -0.000000 0.000001 -4.986157 2.013507 71.134836 1.258823 9.954188 29.577820 0.000007 -0.000005 0.000018 -0.000002 -0.000002 0.000001 -44.719895 -2.905759 -2.548246 13.226748 4.213095 0.950883 28.933484 -5.373047 -18.931237 0.000001 0.000001 0.000001 0.000002 0.000001 0.000000 -69.268780 -1.926249 -2.183175 71.923347 -15.607493 3.800249 -1.621838 -0.447725 5.417840 0.000001 0.000002 0.000002 -0.000001 0.000000 0.000001 
9.869772 220.617020 602.168518 -47.200664 1.101285 -0.151843 2.261735 -1.415685 -1.001999 4.545533 -1.859741 -0.630840 4.545525 -1.859742 -0.630841 -8.295909 -1.560997 -6.241841 -6.805951 -1.732422 0.291536 -0.000004 0.000000 0.000001 -0.000004 0.000000 0.000001 -0.000004 0.000000 0.000001 9.921871 -19.429337 31.304273 -28.072320 -26.089518 6.266329 -7.938653 -28.807323 -9.877376 0.930522 -12.216360 6.905067 -7.340424 -2.770195 -63.240325 -6.524551 -2.949427 -69.083532 0.000016 0.000009 -0.000015 -0.000001 0.000000 -0.000002 3.958300 -12.520086 29.160550 -13.217047 6.915985 1.950120 -0.000005 -0.000005 -0.000017 0.000000 0.000002 0.000001 -6.181114 -5.413332 -50.595538 -6.589347 -2.409843 -74.401749 0.000007 0.000001 -0.000006 -0.000002 -0.000000 -0.000001 -2.087039 1.767803 -64.279026 -0.559482 -5.679450 -66.645830 0.000001 0.000000 -0.000002 -0.000002 -0.000000 -0.000003 -3.336101 4.677359 -70.289975 1.008659 -7.573153 -48.495456 0.000002 -0.000002 -0.000001 0.000000 -0.000001 -0.000001 21.295744 41.326524 -25.615871 -25.086576 10.314982 -31.262148 -6.839016 36.908665 14.507890 -10.343604 0.924021 -9.089157 -9.364329 -0.726281 75.685627 -4.219249 -1.158028 46.490820 0.000004 -0.000001 0.000009 0.000000 0.000001 0.000002 -18.228470 22.743592 -11.792623 14.539290 -28.495758 3.816952 0.000011 -0.000014 -0.000017 0.000000 -0.000000 0.000001 -10.179150 -2.214458 65.411683 -4.062536 -2.065389 53.426242 0.000000 0.000003 0.000003 0.000001 0.000000 0.000002 -3.701828 0.571737 78.472986 0.237122 6.796549 43.470797 -0.000005 0.000004 -0.000012 -0.000002 0.000001 0.000005 -4.986141 2.013487 71.134754 1.258827 9.954172 29.577851 0.000007 -0.000004 0.000021 -0.000001 0.000000 0.000000 -50.662170 -3.311259 -2.343050 23.643315 6.089100 1.967038 24.435234 -3.580112 -17.445811 -0.000025 -0.000008 0.000001 -0.000005 0.000000 0.000000 -76.530528 -1.612537 -1.872466 79.884151 -16.991185 3.558355 -0.029272 -0.203835 1.616598 0.000014 0.000000 0.000000 -0.000003 0.000000 0.000000 
